<?xml version="1.0" encoding="UTF-8"?>
<svg width="170px" height="29px" viewBox="0 0 170 29" version="1.1" xmlns="http://www.w3.org/2000/svg" xmlns:xlink="http://www.w3.org/1999/xlink">
    <title>telavox-logo-full-color</title>
    <g id="telavox-logo-full-color" stroke="none" stroke-width="1" fill="none" fill-rule="evenodd">
        <g id="telavox-logo">
            <g>
                <path d="M142.355185,5.53319145 C147.49635,5.53319145 151.662748,9.70040428 151.662748,14.8407546 C151.662748,19.981105 147.49635,24.1483178 142.355185,24.1483178 C137.214835,24.1483178 133.047622,19.981105 133.047622,14.8407546 C133.047622,9.70040428 137.214835,5.53319145 142.355185,5.53319145 L142.355185,5.53319145 Z M142.355185,20.8645899 C145.682109,20.8645899 148.37902,18.1684937 148.37902,14.8407546 C148.37902,11.5138305 145.682109,8.8169193 142.355185,8.8169193 C139.028261,8.8169193 136.332165,11.5138305 136.332165,14.8407546 C136.332165,18.1684937 139.028261,20.8645899 142.355185,20.8645899 L142.355185,20.8645899 Z M112.597064,21.4106554 C113.00702,22.2199733 112.685086,23.2094112 111.875768,23.6201829 C111.636966,23.7416213 111.382679,23.7986729 111.132467,23.7986729 C110.53261,23.7986729 109.954759,23.4702186 109.665426,22.8988875 L108.468972,20.5442859 L99.1752641,20.5442859 L97.9837005,22.8915523 C97.6927372,23.4628834 97.1148859,23.7913377 96.516659,23.7913377 C96.2656319,23.7913377 96.0121597,23.7342861 95.773358,23.6120326 C94.9640401,23.200446 94.641291,22.2126381 95.0520626,21.4016901 L102.37749,6.98963763 C102.655413,6.47780316 103.197403,6.12978832 103.820896,6.12978832 C104.444388,6.12978832 104.987193,6.47780316 105.264301,6.98882261 L112.597064,21.4106554 L112.597064,21.4106554 Z M106.798175,17.2564829 L103.821711,11.3980973 L100.846061,17.2564829 L106.798175,17.2564829 Z M72.8337193,20.5035347 L64.7869968,20.5035347 L64.7869968,16.6419555 L71.3593427,16.6419555 C72.2672783,16.6419555 73.0024291,15.9051747 73.0024291,14.997239 C73.0024291,14.0901184 72.2672783,13.3533376 71.3593427,13.3533376 L64.7869968,13.3533376 L64.7869968,9.43633681 L72.8337193,9.43633681 C73.741655,9.43633681 74.4768058,8.69955598 74.4768058,7.79243533 C74.4768058,6.88531468 73.741655,6.15097892 72.8337193,6.15097892 L63.1447254,6.15097892 C62.2359747,6.15097892 61.5008239,6.88694473 61.5000089,7.79325035 L61.5000089,7.79406537 L61.5000089,14.997239 L61.5000089,22.1466212 C61.5000089,23.0553719 62.2359747,23.7913377 63.1447254,23.7913377 L72.8337193,23.7913377 C73.741655,23.7913377 74.4768058,23.0553719 74.4768058,22.1466212 C74.4768058,21.2395005 73.741655,20.5035347 72.8337193,20.5035347 L72.8337193,20.5035347 Z M127.042532,7.11841127 C127.424778,6.29442297 128.401991,5.93662786 129.225164,6.31887366 C130.049152,6.70030445 130.406947,7.6783321 130.024701,8.50069035 L123.361073,22.8328706 C123.354553,22.845911 123.346403,22.8581363 123.339882,22.8703617 C123.070925,23.4107219 122.514264,23.7840025 121.869581,23.7840025 C121.228158,23.7840025 120.673942,23.414797 120.403354,22.8793269 C120.395204,22.8630264 120.385424,22.8491711 120.377274,22.8328706 L113.697345,8.50069035 C113.315099,7.6783321 113.672894,6.70030445 114.497697,6.31887366 C115.320871,5.93744288 116.298083,6.29442297 116.679514,7.11841127 L121.868766,18.2353256 L127.042532,7.11841127 Z M169.479967,21.1066518 L164.45209,14.9181818 L169.426175,8.83077469 C169.999137,8.12496473 169.893184,7.08907044 169.187374,6.51610924 C168.483194,5.94233302 167.446484,6.04910104 166.873523,6.75409597 L162.333845,12.307663 L157.794167,6.75409597 C157.22039,6.04910104 156.184496,5.94233302 155.479501,6.51610924 C154.774506,7.08907044 154.668553,8.12496473 155.241514,8.83077469 L160.214785,14.9189968 L155.189353,21.1066518 C154.610687,21.8075716 154.711749,22.8450959 155.413484,23.4229473 C156.113589,24.0016136 157.151928,23.9013658 157.728965,23.199631 L162.333845,17.5287006 L166.940355,23.199631 C167.519022,23.9013658 168.556546,24.0016136 169.257466,23.4229473 C169.95757,22.8450959 170.057003,21.8075716 169.479967,21.1066518 L169.479967,21.1066518 Z M89.6354194,20.5035347 L82.8136765,20.5035347 L82.8136765,7.79162031 C82.8136765,6.88449966 82.0777107,6.14771882 81.1705901,6.14771882 C80.2626544,6.14771882 79.5266886,6.88449966 79.5266886,7.79162031 L79.5266886,22.1466212 C79.5266886,23.0553719 80.2626544,23.7913377 81.1705901,23.7913377 L89.6354194,23.7913377 C90.5425401,23.7913377 91.2776908,23.0553719 91.2776908,22.1466212 C91.2776908,21.2395005 90.5425401,20.5035347 89.6354194,20.5035347 L89.6354194,20.5035347 Z M55.7092702,6.14934887 C56.6172058,6.14934887 57.3523566,6.88449966 57.3523566,7.79243533 C57.3523566,8.700371 56.6172058,9.43633681 55.7092702,9.43633681 L51.3309664,9.43633681 L51.3309664,22.1474362 C51.3309664,23.0553719 50.5950006,23.7905227 49.6878799,23.7905227 C48.7799442,23.7905227 48.0439784,23.0553719 48.0439784,22.1474362 L48.0439784,9.43633681 L43.6884953,9.43633681 C42.7797446,9.43633681 42.0437788,8.700371 42.0437788,7.79243533 C42.0437788,6.88449966 42.7797446,6.14934887 43.6884953,6.14934887 L55.7092702,6.14934887 L55.7092702,6.14934887 Z" id="Fill-1" fill="#2DC659"></path>
                <path d="M14.9751861,15.1861042 C11.3642267,15.1861042 8.43672457,18.1136063 8.43672457,21.7253661 C8.43672457,25.3363255 11.3642267,28.2638276 14.9751861,28.2638276 C18.5869458,28.2638276 21.5136476,25.3363255 21.5136476,21.7253661 C21.5136476,18.1136063 18.5869458,15.1861042 14.9751861,15.1861042 L14.9751861,15.1861042 Z" id="Path" fill="#2C3551"></path>
                <path d="M22.9688804,0 L6.55885698,0.000476163581 C2.93643214,0.000476163581 0,2.92749237 0,6.53909764 C0,10.1507029 2.93643214,13.0769231 6.55885698,13.0769231 L22.9688804,13.0764469 C26.5913052,13.0764469 29.528536,10.1502267 29.528536,6.53862147 C29.528536,2.92701621 26.5913052,0 22.9688804,0 Z" id="Path" fill="#2DC659" opacity="0.900000036"></path>
            </g>
        </g>
    </g>
</svg>