<svg width="170" height="29" xmlns="http://www.w3.org/2000/svg"><g fill="none" fill-rule="evenodd"><path d="M142.355 5.533a9.307 9.307 0 0 1 9.308 9.308 9.308 9.308 0 1 1-9.308-9.308Zm0 15.332a6.023 6.023 0 1 0 0-12.048 6.023 6.023 0 0 0-6.023 6.024 6.023 6.023 0 0 0 6.023 6.024Zm-29.758.546a1.644 1.644 0 0 1-2.932 1.488l-1.196-2.355h-9.294l-1.191 2.348a1.645 1.645 0 0 1-2.932-1.49l7.325-14.412a1.641 1.641 0 0 1 2.887-.001l7.333 14.422Zm-5.799-4.155-2.976-5.858-2.976 5.858h5.952Zm-33.964 3.248h-8.047v-3.862h6.572a1.644 1.644 0 0 0 0-3.289h-6.572V9.436h8.047a1.644 1.644 0 0 0 0-3.285h-9.69c-.908 0-1.643.736-1.644 1.642V22.147c0 .908.736 1.644 1.645 1.644h9.689a1.643 1.643 0 0 0 0-3.287Zm54.209-13.386a1.643 1.643 0 1 1 2.982 1.383l-6.664 14.332c-.006.013-.015.025-.021.037-.27.54-.826.914-1.47.914-.642 0-1.196-.37-1.467-.905l-.026-.046-6.68-14.332a1.643 1.643 0 1 1 2.982-1.382l5.19 11.116 5.174-11.117Zm42.437 13.989-5.028-6.189 4.974-6.087a1.645 1.645 0 0 0-2.552-2.077l-4.54 5.554-4.54-5.554a1.645 1.645 0 1 0-2.552 2.077l4.973 6.088-5.026 6.188a1.645 1.645 0 1 0 2.54 2.093l4.605-5.671 4.606 5.67a1.646 1.646 0 1 0 2.54-2.092Zm-79.845-.603h-6.821V7.792a1.644 1.644 0 0 0-3.287 0v14.355c0 .908.736 1.644 1.644 1.644h8.464a1.643 1.643 0 0 0 0-3.287ZM55.71 6.149a1.642 1.642 0 1 1 0 3.287h-4.378v12.711a1.643 1.643 0 1 1-3.287 0V9.437h-4.356a1.644 1.644 0 1 1 0-3.288H55.71Z" fill="#2DC659"/><path d="M14.975 15.186a6.539 6.539 0 1 0 0 13.078 6.539 6.539 0 0 0 0-13.078Z" fill="#2C3551"/><path d="M22.969 0H6.559C2.936 0 0 2.927 0 6.54c0 3.61 2.936 6.537 6.559 6.537h16.41c3.622 0 6.56-2.927 6.56-6.538C29.529 2.927 26.59 0 22.969 0Z" fill="#2DC659" opacity=".9"/></g></svg>